<svg xmlns="http://www.w3.org/2000/svg" xmlns:xlink="http://www.w3.org/1999/xlink" width="178.29" height="248.25" preserveAspectRatio="xMidYMid meet" version="1.1" viewBox="210.099 98.638 178.287 248.245"><defs><path id="aZz6RnTlr" d="M211.22 324.24L212.17 300.06L233.19 314.1L254.22 328.14L232.24 338.28C222.76 342.66 216.83 345.4 214.46 346.49C212.54 347.38 210.37 345.92 210.45 343.81C210.55 341.2 210.81 334.68 211.22 324.24Z"/><path id="a3z5mEyqX" d="M380.69 119.77C385.54 123.01 386.84 129.57 383.6 134.42C366.35 160.25 323.22 224.82 254.22 328.14L212.17 300.06C280.35 197.98 322.96 134.18 340 108.67C344.1 102.53 352.4 100.88 358.54 104.98C364.72 109.11 374.03 115.33 380.69 119.77Z"/><path id="aOpjpE6pl" d="M216.71 345.28C215.61 346.93 213.36 347.38 211.7 346.27C210.05 345.17 209.6 342.92 210.71 341.27C211.81 339.61 212.78 341.07 214.44 342.18C216.1 343.29 217.82 343.62 216.71 345.28Z"/><path id="c2EtZLbAK4" d="M387.14 124.08C388.43 124.94 388.77 126.68 387.91 127.97C385.81 131.11 380.56 138.98 372.15 151.57L330.1 123.49C338.51 110.9 343.77 103.03 345.87 99.88C346.73 98.6 348.47 98.25 349.75 99.11C357.7 104.41 379.2 118.78 387.14 124.08Z"/></defs><g><g><g><use fill="#ffac21" fill-opacity="1" opacity="1" xlink:href="#aZz6RnTlr"/></g><g><use fill="#ff6000" fill-opacity="1" opacity="1" xlink:href="#a3z5mEyqX"/></g><g><use fill="#000" fill-opacity="1" opacity="1" xlink:href="#aOpjpE6pl"/></g><g><use fill="#332713" fill-opacity="1" opacity="1" xlink:href="#c2EtZLbAK4"/></g></g></g></svg>