<svg xmlns="http://www.w3.org/2000/svg" xmlns:svg="http://www.w3.org/2000/svg" xmlns:xlink="http://www.w3.org/1999/xlink" id="svg2595" width="500" height="500" version="1.0"><defs id="defs2597"><radialGradient id="radialGradient5985" cx="-1040" cy="318.076" r="28.571" fx="-1040" fy="318.076" gradientTransform="matrix(0.4785087,2.7546055e-7,-2.7775371e-7,0.4824922,-542.35082,164.60734)" gradientUnits="userSpaceOnUse" spreadMethod="reflect" xlink:href="#linearGradient3590"/><linearGradient id="linearGradient3590"><stop style="stop-color:#0026a9;stop-opacity:1" id="stop3592" offset="0"/><stop id="stop3602" offset=".255" style="stop-color:#3b86ce;stop-opacity:1"/><stop id="stop3598" offset=".765" style="stop-color:#76e6f3;stop-opacity:1"/><stop style="stop-color:#76e6f3;stop-opacity:1" id="stop3594" offset="1"/></linearGradient><radialGradient id="radialGradient5983" cx="-548.571" cy="378.076" r="265.714" fx="-548.571" fy="378.076" gradientTransform="matrix(4.5454654e-2,8.1244467e-8,-8.1244345e-8,4.5454586e-2,-523.63627,360.89118)" gradientUnits="userSpaceOnUse" spreadMethod="reflect" xlink:href="#linearGradient3590"/></defs><metadata id="metadata2600"/><g id="layer1" transform="translate(-21.428571,-516.6479)"><g id="foreground" transform="matrix(0.7990867,0,0,0.7990867,746.31439,485.07994)"><g id="g3634"><path id="path3578" d="M -282.85712,378.07648 A 265.71429,265.71429 0 1 1 -814.28571,378.07648 A 265.71429,265.71429 0 1 1 -282.85712,378.07648 z" transform="matrix(1.1774194,0,0,1.1774194,51.612896,-92.792369)" style="opacity:1;fill:#0e1125;fill-opacity:1;fill-rule:evenodd;stroke:none;stroke-width:12;stroke-linecap:round;stroke-linejoin:round;stroke-miterlimit:4;stroke-dasharray:none;stroke-dashoffset:0;stroke-opacity:1"/><path style="opacity:1;fill:url(#radialGradient5983);fill-opacity:1;fill-rule:evenodd;stroke:none;stroke-width:12;stroke-linecap:round;stroke-linejoin:round;stroke-miterlimit:4;stroke-dasharray:none;stroke-dashoffset:0;stroke-opacity:1" id="path3580" d="M -282.85712,378.07648 A 265.71429,265.71429 0 1 1 -814.28571,378.07648 A 265.71429,265.71429 0 1 1 -282.85712,378.07648 z" transform="matrix(1.0645162,0,0,1.0645162,-10.322572,-50.106325)"/><path style="opacity:1;fill:#000;fill-opacity:1;fill-rule:evenodd;stroke:none;stroke-width:12;stroke-linecap:round;stroke-linejoin:round;stroke-miterlimit:4;stroke-dasharray:none;stroke-dashoffset:0;stroke-opacity:1" id="path3576" d="M -282.85712,378.07648 A 265.71429,265.71429 0 1 1 -814.28571,378.07648 A 265.71429,265.71429 0 1 1 -282.85712,378.07648 z" transform="translate(-45.714315,-25.714267)"/></g><g id="g3639" transform="translate(422.42688,-21.213203)"><path style="opacity:1;fill:url(#radialGradient5985);fill-opacity:1;fill-rule:evenodd;stroke:none;stroke-width:12;stroke-linecap:round;stroke-linejoin:round;stroke-miterlimit:4;stroke-dasharray:none;stroke-dashoffset:0;stroke-opacity:1" id="path3612" d="M -1011.4286,318.07648 A 28.571428,28.571428 0 1 1 -1068.5714,318.07648 A 28.571428,28.571428 0 1 1 -1011.4286,318.07648 z" transform="matrix(1.5480078,0,0,1.5480078,593.21551,-308.65356)"/><path id="path3632" d="M -1011.4286,318.07648 A 28.571428,28.571428 0 1 1 -1068.5714,318.07648 A 28.571428,28.571428 0 1 1 -1011.4286,318.07648 z" transform="matrix(1.2196258,0,0,1.2196258,251.69826,-204.20298)" style="opacity:1;fill:#000;fill-opacity:1;fill-rule:evenodd;stroke:none;stroke-width:12;stroke-linecap:round;stroke-linejoin:round;stroke-miterlimit:4;stroke-dasharray:none;stroke-dashoffset:0;stroke-opacity:1"/></g></g></g></svg>