<svg xmlns="http://www.w3.org/2000/svg" xmlns:svg="http://www.w3.org/2000/svg" xmlns:xlink="http://www.w3.org/1999/xlink" id="svg2436" width="500" height="500" version="1.0"><defs id="defs2438"><linearGradient id="linearGradient6043" x1="-437.396" x2="-437.396" y1="1191.763" y2="886.697" gradientUnits="userSpaceOnUse" xlink:href="#linearGradient3658"/><linearGradient id="linearGradient6041" x1="-437.396" x2="-437.396" y1="1191.763" y2="886.697" gradientUnits="userSpaceOnUse" xlink:href="#linearGradient3658"/><linearGradient id="linearGradient3658"><stop style="stop-color:#7c7c7e;stop-opacity:1" id="stop3660" offset="0"/><stop style="stop-color:#000;stop-opacity:1" id="stop3662" offset="1"/></linearGradient><radialGradient id="radialGradient6039" cx="-437.396" cy="1039.23" r="152.533" fx="-437.396" fy="1039.23" gradientUnits="userSpaceOnUse" xlink:href="#linearGradient3658"/><linearGradient id="linearGradient5289"><stop style="stop-color:#565858;stop-opacity:1" id="stop5291" offset="0"/><stop style="stop-color:#565858;stop-opacity:0" id="stop5293" offset="1"/></linearGradient><linearGradient id="linearGradient5981" x1="1126.825" x2="1126.825" y1="637.729" y2="611.396" gradientUnits="userSpaceOnUse" xlink:href="#linearGradient5289"/><linearGradient id="linearGradient5247"><stop style="stop-color:#fcfcfc;stop-opacity:1" id="stop5249" offset="0"/><stop style="stop-color:#b2b2b2;stop-opacity:.98431373" id="stop5251" offset="1"/></linearGradient><radialGradient id="radialGradient5979" cx="1150.564" cy="442.23" r="79.282" fx="1150.564" fy="442.23" gradientUnits="userSpaceOnUse" xlink:href="#linearGradient5247"/><linearGradient id="linearGradient5307"><stop id="stop5309" offset="0" style="stop-color:#878789;stop-opacity:1"/><stop style="stop-color:#8e8e90;stop-opacity:1" id="stop5313" offset=".057"/><stop id="stop5315" offset=".341" style="stop-color:#212122;stop-opacity:1"/><stop id="stop5311" offset="1" style="stop-color:#000;stop-opacity:1"/></linearGradient><linearGradient id="linearGradient5977" x1="1156.858" x2="1229.845" y1="422.673" y2="478.596" gradientUnits="userSpaceOnUse" xlink:href="#linearGradient5307"/></defs><metadata id="metadata2441"/><g id="layer1" transform="translate(-272.85718,-545.21932)"><g id="foreground" transform="matrix(1.7246509,0,0,1.7246509,-5190.0102,-922.31451)"><path id="path4144" d="M -284.86302,1039.2302 A 152.53304,152.53304 0 1 1 -589.92909,1039.2302 A 152.53304,152.53304 0 1 1 -284.86302,1039.2302 z" transform="matrix(0.950331,0,0,0.950331,3728.1486,8.2606262)" style="fill:#333;fill-opacity:1;fill-rule:evenodd;stroke:none;stroke-width:12;stroke-linecap:round;stroke-linejoin:round;stroke-miterlimit:4;stroke-dasharray:none;stroke-dashoffset:0;stroke-opacity:1"/><g id="g4146" transform="translate(956.30753,-195.29632)"><path style="fill:url(#radialGradient6039);fill-opacity:1;fill-rule:evenodd;stroke:none;stroke-width:12;stroke-linecap:round;stroke-linejoin:round;stroke-miterlimit:4;stroke-dasharray:none;stroke-dashoffset:0;stroke-opacity:1" id="path3704" d="M -284.86302,1039.2302 A 152.53304,152.53304 0 1 1 -589.92909,1039.2302 A 152.53304,152.53304 0 1 1 -284.86302,1039.2302 z" transform="matrix(0.8708608,0,0,0.8708608,2737.081,286.14481)"/><g id="g3757" transform="translate(311.03624,286.88332)"><path id="path3672" d="M -284.86302,1039.2302 A 152.53304,152.53304 0 1 1 -589.92909,1039.2302 A 152.53304,152.53304 0 1 1 -284.86302,1039.2302 z" transform="matrix(0.1582274,0,0,0.1582274,2114.3417,650.22553)" style="opacity:1;fill:url(#linearGradient6041);fill-opacity:1;fill-rule:evenodd;stroke:none;stroke-width:12;stroke-linecap:round;stroke-linejoin:round;stroke-miterlimit:4;stroke-dasharray:none;stroke-dashoffset:0;stroke-opacity:1"/><path style="opacity:1;fill:url(#linearGradient6043);fill-opacity:1;fill-rule:evenodd;stroke:none;stroke-width:12;stroke-linecap:round;stroke-linejoin:round;stroke-miterlimit:4;stroke-dasharray:none;stroke-dashoffset:0;stroke-opacity:1" id="path3753" d="M -284.86302,1039.2302 A 152.53304,152.53304 0 1 1 -589.92909,1039.2302 A 152.53304,152.53304 0 1 1 -284.86302,1039.2302 z" transform="matrix(-0.1140878,6.586865e-2,-6.586865e-2,-0.1140878,2063.6847,962.03438)"/></g></g></g></g></svg>